# Max2Obj Version 4.0 Mar 10th, 2001
#
mtllib ./barrel-s-07_obj.mtl
# g
# object barrel-s-07 to come ...
#
v  0.000011 -0.136399 0.000000
v  0.498520 0.451821 -0.498516
v  0.498514 0.451820 0.498516
v  0.000011 2.029817 -0.000004
v  0.498520 1.429754 -0.498520
v  0.498514 1.429753 0.498512
v  0.711080 0.451821 0.000000
v  0.711080 1.429754 -0.000011
v  -0.498491 0.451821 -0.498516
v  -0.498491 1.429754 -0.498520
v  0.000021 0.451821 -0.711094
v  0.000015 1.429754 -0.711100
v  -0.498497 0.451820 0.498516
v  -0.498497 1.429753 0.498512
v  -0.711060 0.451821 -0.000006
v  -0.711060 1.429754 -0.000006
v  -0.000001 0.451820 0.711100
v  0.000004 1.429754 0.711094
# 18 vertices

vt  0.494455 0.920290 0.000000
vt  0.564533 0.946398 0.000000
vt  0.122205 0.901956 0.000000
vt  0.122215 0.941600 0.000000
vt  0.090154 0.901956 0.000000
vt  0.090200 0.941600 0.000000
vt  0.542925 0.897795 0.000000
vt  0.122205 0.901956 0.000000
vt  0.122215 0.941600 0.000000
vt  0.090200 0.941600 0.000000
vt  0.090154 0.901956 0.000000
vt  0.542925 0.897795 0.000000
vt  0.564533 0.946398 0.000000
vt  0.494455 0.920290 0.000000
vt  0.542925 0.897795 0.000000
vt  0.564533 0.946398 0.000000
vt  0.494455 0.920290 0.000000
vt  0.542925 0.897795 0.000000
vt  0.564533 0.946398 0.000000
vt  0.494455 0.920290 0.000000
vt  0.494455 0.920290 0.000000
vt  0.564533 0.946398 0.000000
vt  0.122205 0.901956 0.000000
vt  0.122215 0.941600 0.000000
vt  0.090154 0.901956 0.000000
vt  0.090200 0.941600 0.000000
vt  0.542925 0.897795 0.000000
vt  0.122205 0.901956 0.000000
vt  0.122215 0.941600 0.000000
vt  0.090200 0.941600 0.000000
vt  0.090154 0.901956 0.000000
vt  0.542925 0.897795 0.000000
vt  0.564533 0.946398 0.000000
vt  0.494455 0.920290 0.000000
vt  0.542925 0.897795 0.000000
vt  0.564533 0.946398 0.000000
vt  0.494455 0.920290 0.000000
vt  0.542925 0.897795 0.000000
vt  0.564533 0.946398 0.000000
vt  0.494455 0.920290 0.000000
vt  0.494455 0.920290 0.000000
vt  0.564533 0.946398 0.000000
vt  0.122205 0.901956 0.000000
vt  0.122215 0.941600 0.000000
vt  0.090154 0.901956 0.000000
vt  0.090200 0.941600 0.000000
vt  0.542925 0.897795 0.000000
vt  0.122205 0.901956 0.000000
vt  0.122215 0.941600 0.000000
vt  0.090200 0.941600 0.000000
vt  0.090154 0.901956 0.000000
vt  0.542925 0.897795 0.000000
vt  0.564533 0.946398 0.000000
vt  0.494455 0.920290 0.000000
vt  0.542925 0.897795 0.000000
vt  0.564533 0.946398 0.000000
vt  0.494455 0.920290 0.000000
vt  0.542925 0.897795 0.000000
vt  0.564533 0.946398 0.000000
vt  0.494455 0.920290 0.000000
vt  0.494455 0.920290 0.000000
vt  0.564533 0.946398 0.000000
vt  0.122205 0.901956 0.000000
vt  0.122215 0.941600 0.000000
vt  0.090154 0.901956 0.000000
vt  0.090200 0.941600 0.000000
vt  0.542925 0.897795 0.000000
vt  0.122205 0.901956 0.000000
vt  0.122215 0.941600 0.000000
vt  0.090200 0.941600 0.000000
vt  0.090154 0.901956 0.000000
vt  0.542925 0.897795 0.000000
vt  0.564533 0.946398 0.000000
vt  0.494455 0.920290 0.000000
vt  0.542925 0.897795 0.000000
vt  0.564533 0.946398 0.000000
vt  0.494455 0.920290 0.000000
vt  0.542925 0.897795 0.000000
vt  0.564533 0.946398 0.000000
vt  0.494455 0.920290 0.000000
# 80 texture vertices

vn  0.000001 -1.000000 -0.000001
vn  0.651305 -0.389409 -0.651278
vn  0.651301 -0.389406 0.651283
vn  0.000001 1.000000 -0.000000
vn  0.652443 0.385574 -0.652420
vn  0.652442 0.385576 0.652420
vn  0.921042 -0.389463 0.000005
vn  0.922637 0.385668 -0.000002
vn  -0.651296 -0.389408 -0.651287
vn  -0.652438 0.385573 -0.652425
vn  0.000005 -0.389469 -0.921039
vn  0.000000 0.385671 -0.922637
vn  -0.651308 -0.389407 0.651276
vn  -0.652445 0.385577 0.652416
vn  -0.921042 -0.389463 -0.000008
vn  -0.922637 0.385669 -0.000005
vn  -0.000007 -0.389466 0.921041
vn  -0.000002 0.385676 0.922634
# 18 vertex normals

# g barrel-s-07
usemtl level
s 1
f 7/5/7 2/3/2 5/4/5 8/6/8
f 7/11/7 8/10/8 6/9/6 3/8/3
f 11/25/11 9/23/9 10/24/10 12/26/12
f 11/31/11 12/30/12 5/29/5 2/28/2
f 15/45/15 13/43/13 14/44/14 16/46/16
f 15/51/15 16/50/16 10/49/10 9/48/9
f 17/65/17 3/63/3 6/64/6 18/66/18
f 17/71/17 18/70/18 14/69/14 13/68/13
f 2/16/2 7/15/7 1/17/1
f 6/13/6 8/12/8 4/14/4
f 7/18/7 3/19/3 1/20/1
f 8/7/8 5/2/5 4/1/4
f 9/36/9 11/35/11 1/37/1
f 5/33/5 12/32/12 4/34/4
f 11/38/11 2/39/2 1/40/1
f 12/27/12 10/22/10 4/21/4
f 13/56/13 15/55/15 1/57/1
f 10/53/10 16/52/16 4/54/4
f 15/58/15 9/59/9 1/60/1
f 16/47/16 14/42/14 4/41/4
f 3/76/3 17/75/17 1/77/1
f 14/73/14 18/72/18 4/74/4
f 17/78/17 13/79/13 1/80/1
f 18/67/18 6/62/6 4/61/4
# 24 faces

# g
